# xmcd
#
# Track frame offsets: 
#        150
#        8187
#        20024
#        29381
#        42660
#        51427
#        61156
#        74347
#        85054
#        94726
#        104647
#        112279
#        126100
#        133343
#        146238
#        157611
#        165399
#        179914
#        188222
#        197642
#        206689
#        214625
#        223157
#        232271
#        239963
#
# Disc length: 3354 seconds
#
# Revision: 0
# Processed by: cddbd v1.5.2PL0 Copyright (c) Steve Scherf et al.
# Submitted via: ExactAudioCopy v0.99pb5
#
DISCID=8e0d1819
DTITLE=Gifts Of Music - Inspiration Be Still And Know That I Am God
DYEAR=2006
DGENRE=Instrumental
TTITLE0=Blessed Quietness
TTITLE1=Be Still, My Soul
TTITLE2=Take Time To Be Holy
TTITLE3=In The Garden
TTITLE4=Like A River Glorious
TTITLE5=Tis So Sweet To Trust In Jesus
TTITLE6=He Hideth My Soul
TTITLE7=Blessed Assurance
TTITLE8=Breathe On Me, O Breath Of God
TTITLE9=Abide With Me, Fast Falls The Eventide
TTITLE10=Guide Me, O Thou Great Jehovah
TTITLE11=God Leads Us Along
TTITLE12=Just A Closer Walk
TTITLE13=Tell Me The Story Of Jesus
TTITLE14=No, Not One!
TTITLE15=Softly And Tenderly
TTITLE16=Amazing Grace
TTITLE17=Wonderful Words Of Life
TTITLE18=I Must Tell Jesus
TTITLE19=Kum Ba Yah
TTITLE20=I Need Thee Every Hour
TTITLE21=Pass Me Not, O Gentle Savior
TTITLE22=Near The Cross
TTITLE23=The Solid Rock
TTITLE24=It Is Well With My Soul
EXTD=
EXTT0=
EXTT1=
EXTT2=
EXTT3=
EXTT4=
EXTT5=
EXTT6=
EXTT7=
EXTT8=
EXTT9=
EXTT10=
EXTT11=
EXTT12=
EXTT13=
EXTT14=
EXTT15=
EXTT16=
EXTT17=
EXTT18=
EXTT19=
EXTT20=
EXTT21=
EXTT22=
EXTT23=
EXTT24=
PLAYORDER=
